<svg width="43" height="22" viewBox="0 0 43 22" fill="none" xmlns="http://www.w3.org/2000/svg">
<path d="M42.0437 0.119568H11.0604C10.5323 0.119568 10.1043 0.547631 10.1043 1.07572V2.879H0.990824C0.46273 2.879 0.034668 3.30707 0.034668 3.83516C0.034668 4.36325 0.46273 4.79132 0.990824 4.79132H10.1043V17.2087H4.65729C4.1292 17.2087 3.70114 17.6367 3.70114 18.1648C3.70114 18.6929 4.1292 19.121 4.65729 19.121H10.1043V20.9243C10.1043 21.4524 10.5323 21.8804 11.0604 21.8804H42.0437C42.5718 21.8804 42.9999 21.4524 42.9999 20.9243V1.07572C42.9999 0.547631 42.5718 0.119568 42.0437 0.119568ZM39.685 2.03188L26.5534 12.8117L13.4818 2.03188H39.685ZM41.0876 19.9682H12.0167V3.30229L25.9438 14.7876C26.1204 14.9332 26.3362 15.0061 26.5521 15.0061C26.7673 15.0061 26.9825 14.9337 27.1588 14.789L41.0876 3.35469V19.9682Z" fill="#2080F6"/>
</svg>
