<svg width="63" height="62" viewBox="0 0 63 62" fill="none" xmlns="http://www.w3.org/2000/svg">
<path d="M58.3507 28.6356L62.6395 24.0572C62.9914 23.6815 63.0966 23.1164 62.9062 22.6257C62.7157 22.1348 62.2671 21.8148 61.7693 21.8148H52.8791C51.717 16.7366 49.2781 12.1093 45.7916 8.38721C40.7254 2.97863 33.9892 0 26.8242 0C19.6592 0 12.923 2.97863 7.85666 8.38721C2.79021 13.7958 0 20.9867 0 28.6356C0 36.2844 2.79021 43.4755 7.85666 48.884C9.36324 50.4923 11.0183 51.8839 12.7876 53.048L9.0806 60.0394C8.86503 60.4461 8.86798 60.9444 9.08848 61.3479C9.30886 61.7517 9.71356 62 10.1514 62H16.4883C16.9316 62 17.3407 61.7454 17.5591 61.3335L20.1803 56.3899C22.3256 56.9709 24.5532 57.2712 26.8242 57.2712C29.0951 57.2712 31.3228 56.9709 33.4681 56.3899L36.0892 61.3335C36.3076 61.7454 36.7168 62 37.1601 62H43.497C43.9348 62 44.3395 61.7517 44.56 61.3481C44.7805 60.9444 44.7835 60.4461 44.5679 60.0395L40.8609 53.0481C42.6302 51.8839 44.2853 50.4924 45.7918 48.8841C49.277 45.1636 51.7172 40.5343 52.8791 35.4565H61.7695C62.2671 35.4565 62.7158 35.1364 62.9063 34.6457C63.0968 34.1549 62.9914 33.5898 62.6396 33.2141L58.3507 28.6356ZM56.1008 27.322H47.5135L50.2114 24.4419H58.7989L56.1008 27.322ZM15.7708 59.3729H12.2617L14.94 54.3218C15.8591 54.8076 16.8028 55.2373 17.7682 55.6059L15.7708 59.3729ZM41.3866 59.3729H37.8776L35.8802 55.6059C36.8456 55.2373 37.7893 54.8076 38.7084 54.3218L41.3866 59.3729ZM44.0516 47.0263C42.4261 48.7616 40.6107 50.2199 38.6565 51.3824C38.6324 51.3948 38.608 51.4067 38.5843 51.421C38.5694 51.4301 38.5558 51.4404 38.5414 51.45C37.0424 52.3304 35.4627 53.0372 33.8236 53.5592C33.7591 53.5729 33.6954 53.5931 33.6325 53.6183C31.4479 54.2932 29.1615 54.6441 26.8242 54.6441C24.4869 54.6441 22.2005 54.2932 20.0159 53.6184C19.9529 53.5932 19.8892 53.573 19.8246 53.5593C18.1856 53.0373 16.6059 52.3305 15.1069 51.4501C15.0925 51.4406 15.079 51.4302 15.0641 51.4211C15.0404 51.4068 15.0161 51.395 14.992 51.3825C13.0378 50.22 11.2224 48.7617 9.59691 47.0263C4.99521 42.114 2.46093 35.5827 2.46093 28.6356C2.46093 21.6884 4.99521 15.1572 9.59678 10.2448C14.1984 5.33252 20.3165 2.62712 26.8242 2.62712C33.3319 2.62712 39.45 5.33252 44.0516 10.2448C47.0752 13.4727 49.2317 17.4489 50.339 21.8148H49.7019C49.3756 21.8148 49.0625 21.9533 48.8318 22.1995L45.5661 25.6859C45.2365 23.2977 44.5133 20.9756 43.4211 18.8638C43.0927 18.2287 42.3441 17.9983 41.7491 18.3487C41.1542 18.6993 40.9383 19.4985 41.2667 20.1336C42.4348 22.3921 43.0873 24.8477 43.2543 27.3222H37.8289C37.555 24.6614 36.4536 22.1965 34.6549 20.2764C32.5632 18.0433 29.7822 16.8136 26.8242 16.8136C23.8661 16.8136 21.0852 18.0433 18.9936 20.2761C16.9019 22.5092 15.75 25.4778 15.75 28.6356C15.75 31.7934 16.9019 34.7622 18.9935 36.995C21.0852 39.2279 23.8661 40.4576 26.8242 40.4576C29.7822 40.4576 32.5632 39.2279 34.6548 36.9951C36.4535 35.0749 37.5548 32.61 37.8288 29.9492H43.2488C42.9554 34.0553 41.3323 38.0402 38.4831 41.0818C35.3689 44.4064 31.2283 46.2373 26.8242 46.2373C22.4201 46.2373 18.2795 44.4064 15.1653 41.0818C12.051 37.7573 10.3359 33.3372 10.3359 28.6356C10.3359 23.934 12.051 19.5138 15.1653 16.1894C20.331 10.6748 28.4004 9.4529 34.7885 13.218C35.3833 13.5684 36.1319 13.338 36.4605 12.7029C36.7889 12.0678 36.5729 11.2688 35.978 10.918C32.4533 8.84065 28.3031 8.01271 24.2921 8.58726C20.1473 9.18073 16.3895 11.1671 13.4251 14.3317C9.84608 18.1525 7.87499 23.2323 7.87499 28.6356C7.87499 34.0389 9.84608 39.1188 13.425 42.9395C17.0041 46.7602 21.7627 48.8644 26.8242 48.8644C31.8857 48.8644 36.6443 46.7602 40.2232 42.9396C43.1315 39.8351 44.9764 35.9153 45.5704 31.5902L48.8317 35.0718C49.0624 35.3181 49.3755 35.4565 49.7018 35.4565H50.3387C49.2314 39.8221 47.074 43.7998 44.0516 47.0263ZM30.8429 26.1587C30.5032 25.5303 29.7506 25.3152 29.1621 25.678L26.209 27.498C25.8282 27.7327 25.5937 28.1663 25.5937 28.6356C25.5937 29.1049 25.8282 29.5385 26.209 29.7731L29.1621 31.5932C29.3559 31.7126 29.5674 31.7693 29.7762 31.7693C30.2015 31.7693 30.615 31.5338 30.8429 31.1124C31.0426 30.7433 31.054 30.3142 30.9112 29.9492H35.3497C35.089 31.9067 34.2477 33.7143 32.9146 35.1373C31.2878 36.8741 29.1249 37.8305 26.8242 37.8305C24.5235 37.8305 22.3605 36.8741 20.7336 35.1373C19.1068 33.4007 18.2109 31.0917 18.2109 28.6356C18.2109 26.1795 19.1068 23.8705 20.7337 22.1337C22.3605 20.3971 24.5235 19.4407 26.8242 19.4407C29.1249 19.4407 31.2878 20.3971 32.9148 22.1339C34.2477 23.5568 35.0891 25.3644 35.3499 27.322H30.9113C31.054 26.9569 31.0426 26.5279 30.8429 26.1587ZM50.2114 32.8293L47.5135 29.9492H56.1008L58.7989 32.8293H50.2114Z" fill="black"/>
</svg>
